# xmcd CD database file
#
# Track frame offsets:
#	150
#	9187
#	18696
#	28510
#	40272
#	50098
#	57378
#	67063
#	79916
#	88272
#	98901
#	109184
#	120127
#	132108
#	140588
#	153548
#	164338
#	173849
#	184333
#	196979
#
# Disc length: 2809 seconds
#
# Revision: 0
# Processed by: cddbd v1.4PL0 Copyright (c) Steve Scherf et al.
# Submitted via: Feurio! 1.66 - http://www.feurio.com
#
DISCID=150af714
DTITLE=Les Paul - GUITAR LEGENDS
DYEAR=1900
DGENRE=
TTITLE0=Whispering
TTITLE1=How high the moon
TTITLE2=Magic melodie
TTITLE3=Nola
TTITLE4=Mr. Sandman
TTITLE5=Tico tico
TTITLE6=Chicken reel
TTITLE7=How deep is the ocean
TTITLE8=Meet mister Callaghan
TTITLE9=Twelfth street rag
TTITLE10=Mockin' Bird Hill
TTITLE11=Little rock getaway
TTITLE12=Hummingbird
TTITLE13=Lady of Spain
TTITLE14=Vaya con dios (may God be with you)
TTITLE15=Mandolino
TTITLE16=Tiger rag
TTITLE17=San Antonio rose
TTITLE18=Lover
TTITLE19=That old feeling
EXTD=
EXTT0=
EXTT1=
EXTT2=
EXTT3=
EXTT4=
EXTT5=
EXTT6=
EXTT7=
EXTT8=
EXTT9=
EXTT10=
EXTT11=
EXTT12=
EXTT13=
EXTT14=
EXTT15=
EXTT16=
EXTT17=
EXTT18=
EXTT19=
PLAYORDER=
